<?xml version="1.0" encoding="UTF-8"?><svg id="_圖層_1" xmlns="http://www.w3.org/2000/svg" viewBox="0 0 665.22 112.72"><defs><style>.cls-1{fill:#f4ca3c;}</style></defs><g><path class="cls-1" d="M70.54,111.39c-.92,1.32-2.38,1.67-4.19,1-.6-.22-1.35-.38-1.93-.22-2.27,.63-4.47,.79-6.75-.02-.55-.2-1.32,.06-1.94,.25-1.05,.33-1.94,.32-2.99-.23-.82-.43-1.96-.38-2.95-.34-2.34,.11-4.43-1.03-6.67-1.26-1.57-.16-2.69-1.53-4.43-1.23-.69,.12-1.53-.73-2.32-1.08-1.37-.61-2.98-.89-4.07-1.81-2.07-1.74-4.78-2.46-6.64-4.51-.94-1.03-2.24-1.73-3.36-2.6-.9-.69-1.81-1.38-2.65-2.14-1.89-1.71-3.81-3.41-5.59-5.23-.86-.87-1.45-2-2.16-3.02-.5-.71-1.02-1.41-1.5-2.13-1.09-1.66-2.22-3.3-3.21-5.01-.66-1.14-1.21-2.36-1.62-3.61-1.07-3.22-2.04-6.48-3.06-9.71-.43-1.37-.87-2.74-1.34-4.11C-.27,60.21-.05,55.9,.14,51.6c0-.22-.05-.55,.06-.63,1.25-.83,.85-2.11,.98-3.28,.12-1.12,.42-2.22,.65-3.32,.04-.18,.2-.36,.18-.53-.26-2.6,1.34-4.66,2.04-6.98,.46-1.52,.74-3.19,1.56-4.5,1.49-2.37,2.47-5.06,4.49-7.11,.45-.46,.43-1.37,.86-1.89,1.26-1.52,2.65-2.92,3.96-4.4,.93-1.05,1.74-2.2,2.69-3.23,2.45-2.67,5.17-4.98,8.58-6.39,.69-.29,1.1-1.31,1.79-1.53,2.75-.88,4.98-3.13,8.08-3.07,.15,0,.39,.04,.42-.02,.83-1.59,2.58-1.16,3.85-1.57,1.89-.62,3.62-1.93,5.8-1.64,.67,.09,1.54-.02,2.05-.41,1.12-.84,2.34-.72,3.57-.72,2.16,0,4.37,.32,6.45-.08,3.3-.63,6.52-.14,9.73,.17,1.29,.13,2.59,.83,3.98,.77,1.46-.07,2.9-.24,4.25,.55,.25,.14,.67-.06,1,0,.53,.1,1.24,.12,1.52,.47,.51,.63,.95,.81,1.66,.43,.2-.11,.59-.25,.62-.21,.63,1.07,2.28,.95,2.67,1.61,.74,1.26,2.01,1.37,2.9,1.61,1.88,.51,3.22,1.75,4.8,2.66,1.52,.87,3.1,1.64,4.69,2.47,.28,.26,.63,.55,.95,.88,3.11,3.22,6.22,6.44,9.33,9.67,.43,.45,.91,.85,1.27,1.35,.86,1.2,1.52,2.47,1.94,3.93,.22,.75,1.33,1.2,1.83,1.93,.67,.98,1.08,2.12,1.71,3.13,.32,.51,.85,.88,1.07,1.42,.29,.53,.59,1.05,.86,1.58,.11,.21,.15,.45,.25,.66,.37,.81,.78,1.6,1.13,2.41,.09,.22-.02,.52,.07,.74,.3,.78,.64,1.55,.97,2.32,.12,.29,.35,.58,.36,.88,.05,1.21-.16,2.43,.94,3.41,.27,.24-.1,1.1,0,1.64,.23,1.17,.57,2.33,.87,3.48,.05,.18,.22,.33,.23,.5,.11,3.85,.28,7.71,.26,11.56,0,1.15-.56,2.3-.82,3.46-.59,2.64-1.18,5.29-1.74,7.94-.57,2.7-1.87,5.07-3.27,7.41-.48,.79-.7,1.73-1.12,2.56-.55,1.09-1.13,2.17-1.78,3.19-.93,1.47-1.94,2.9-2.92,4.33-.1,.15-.26,.32-.42,.38-2.01,.76-3.13,2.5-4.47,4.01-.44,.49-.95,.92-1.42,1.39-2.62,2.63-5.4,5.04-8.81,6.61-.42,.2-.75,.58-1.15,.84-1.79,1.14-3.61,2.21-5.73,2.61-.09,.02-.25-.02-.28,.02-1.33,2.31-3.97,1.65-5.93,2.55-2.08,.95-4.36,1.5-6.6,2.01-.86,.2-1.86-.17-3.05-.31Zm37.74-38.64c-.06-.36,.03-1.04-.25-1.27-.89-.72-1.91-1.28-2.9-1.88-2.2-1.34-4.43-2.63-6.6-4.01-.58-.37-.98-1.45-1.48-1.47-2.82-.1-5.5-.78-8.19-1.49-.18-.05-.39,.01-.58,0-1.86-.19-3.72-.36-5.57-.6-1.07-.14-2.34-.09-3.12-.66-.88-.64-1.68-.85-2.64-.76-1.26,.11-2.56,.27-3.44-.86-.78-1.01-1.66-2.06-2.03-3.24-.66-2.07-.86-4.28-2.14-6.14-.12-.18-.05-.47-.12-.7-.38-1.26,.66-1.74,1.31-2.47,1.52-1.71,2.84-3.62,4.51-5.16,1.53-1.41,2.95-2.94,4.85-4.03,1.84-1.06,3.26-2.9,4.76-4.49,.52-.55,1-1.36,1.07-2.09,.15-1.47-.55-3.07,.83-4.32,.14-.12,.07-.46,.13-.69,.26-.95,.44-1.93,.81-2.83,.52-1.24,1.19-2.42,1.78-3.63,.51-1.05-.17-1.73-.91-2.16-.34-.19-1.16,0-1.48,.31-1.19,1.15-2.22,2.46-3.39,3.63-1.09,1.1-2.34,2.05-3.38,3.19-.51,.56-.76,.86-1.43,.26-.14-.13-.76,.11-1.03,.34-.88,.74-1.34,1.71-1.73,2.83-.46,1.34-1.38,2.51-2.05,3.78-.98,1.86-1.92,3.74-2.86,5.63-.3,.6-.44,1.28-.77,1.85-.79,1.33-1.56,2.69-2.52,3.89-1.04,1.29-1.64,3.61-4.17,2.27-.19-.1-.49-.05-.72,0-1.19,.24-2.37,.54-3.57,.74-2.78,.47-5.49,.36-7.36-2.08-1.11-1.46-1.86-3.2-2.76-4.81-1.04-1.86-2.06-3.74-3.12-5.59-.36-.62-.9-1.14-1.25-1.76-1-1.75-1.97-3.52-2.9-5.3-.58-1.11-1.01-2.41-2.69-1.41-.07,.04-.29-.18-.45-.24-3.06-1.2-4.99-3.75-6.89-6.17-1-1.27-1.85-1.62-3.27-1.33-.82,.17-1.36,1.05-.81,1.67,.43,.48,.69,.79,.51,1.48-.08,.3,.34,.74,.56,1.1,.23,.37,.57,.7,.72,1.1,.48,1.27,.87,2.58,1.37,3.84,.3,.77,.75,1.48,1.24,2.45,0,0,.34,.08,.68,.16-.11,.48-.35,.91-.26,1.25,.42,1.5,1.67,2.43,2.65,3.52,1.31,1.46,2.84,2.72,4.28,4.07,.62,.58,1.23,1.19,1.89,1.73,1.1,.89,2.24,1.73,3.35,2.62,.3,.24,.71,.51,.79,.84,.4,1.76,2.03,2.07,3.25,3.08,.09,.38,.24,.97,.37,1.58,.2,.9,.55,1.8,.53,2.69-.02,1.08-.35,2.16-.58,3.23-.49,2.29-1.19,4.49-3.34,5.8-.65,.39-1.41,.79-2.13,.82-1,.03-2.01-.29-3.11-.48,.12,1.48-1.12,1.28-1.95,1.36-.99,.09-2.13-.48-2.98-.17-1.89,.69-3.73,1.23-5.77,1.36-1.57,.1-3.15,1.2-4.65,1.07-2.14-.19-2.65,1.69-4.03,2.38-.6,.3-1.05,.88-1.64,1.2-1.91,1.05-3.92,1.94-5.76,3.11-.54,.34-1,1.48-.83,2.07,.15,.54,1.15,.96,1.85,1.2,.7,.24,1.51,.13,2.24,.3,1.12,.25,2.05,.14,2.79-.87,.26-.35,.76-.85,1.07-.8,1.53,.26,3.15,.44,4.51,1.12,1.21,.6,1.96,.32,2.95-.24,2.17-1.23,4.28-2.74,6.62-3.44,2.85-.84,5.03-2.84,7.76-3.81,1.49-.53,2.8-1.56,4.29-2.06,.72-.24,1.73,.09,2.51,.4,1.01,.4,1.94,1.04,2.89,1.6,.76,.45,1.54,.88,2.26,1.39,1.2,.86,2.35,1.77,3.36,2.54,.06,.66,0,1.18,.15,1.63,.59,1.84,.5,3.56-.21,5.4-.55,1.42-1.14,3.14-.81,4.51,.48,1.97-.95,3.5-.57,5.34,.13,.65-.14,1.41-.3,2.1-.32,1.4-.69,2.78-1.09,4.41,2.02-.26,2.27,.79,2.4,1.99,.05,.51,.04,1.31,.34,1.48,1.2,.66,.69,1.73,.81,2.63,.11,.8,0,1.66,.25,2.4,.32,.95,.9,1.81,1.55,3.04,.58-.23,2-.45,2.08-.9,.44-2.46,1.92-4.72,1.48-7.37-.12-.73,1.73-2.98,2.49-3.24-.23-1.93-.46-3.87-.68-5.8-.04-.39,0-1.11-.06-1.12-1.35-.16-.89-1.21-1-1.96-.17-1.13,0-2.47-.57-3.32-.49-.72-.51-1.32-.61-2.04-.23-1.55-.37-3.14-.85-4.61-.87-2.66,1.01-6.98,3.61-7.88,.35-.12,.8-.08,1.09-.28,.98-.67,1.83-1.58,2.88-2.1,1.4-.69,2.95-1.09,3.99-1.46,6.66,4.08,13.18,7.35,20.15,9.99,.4-.17,1-.6,1.64-.66,1.77-.16,3.56-.16,5.34-.21,.18,0,.38,.1,.55,.2,1.42,.83,2.82,1.66,4.56,.78,.42-.21,.97-.18,1.65-.28Zm-48.86-31.06c2.78,.05,3.58-1.76,4.53-3.15,1.55-2.26,2.65-4.85,4.35-6.98,1.08-1.36,1.96-2.73,2.64-4.28,.46-1.06,1.02-2.07,1.47-3.13,.25-.59,.35-1.24,.58-1.84,.25-.65,.63-1.27-.38-1.62-.15-.05-.34-.26-.35-.42-.19-1.88-.21-3.74-1.16-5.53-.75-1.42-.93-3.13-1.37-4.72-.41-1.45-.96-2.88-1.18-4.36-.18-1.21-.77-1.4-1.76-1.28-.94,.12-1.89,.32-2.84,.31-2.73-.03-5.45-.2-8.18-.23-1.19-.01-2.4,.35-3.57,.23-2.53-.27-4.29,1.35-3.92,3.76,.09,.56,0,1.16-.09,1.72-.23,1.39-.51,2.77-.79,4.15-.08,.4-.28,.78-.4,1.17-.26,.88-.63,1.76-.73,2.66-.13,1.15-.07,2.32-.02,3.48,.07,1.68,.44,3.26,1.73,4.49,.13,.12,.19,.31,.27,.48,.54,1.2,1.03,2.43,1.62,3.6,.35,.69,.84,1.31,1.28,1.95,.55,.79,1.13,1.57,1.7,2.35,.2,.27,.41,.52,.63,.77,.24,.28,.61,.52,.72,.84,.48,1.51,1.18,2.89,2.45,3.84,1,.75,2.13,1.33,2.77,1.72ZM4.81,46.36c.65,1.66-.14,3.47,1.33,4.72,.45,.39,.94,.75,1.45,1.05,.88,.52,1.77,1.03,2.7,1.46,1.1,.51,2.27,.85,3.35,1.4,.99,.51,1.86,1.25,2.83,1.79,1.4,.78,2.82,1.51,4.27,2.19,.54,.25,1.19,.44,1.78,.42,2.62-.07,4.98-1.47,7.65-1.44,1.82,.03,3.25-1.43,5.26-1.36,2.28,.08,4.62-.46,6.87-1.02,1-.25,2.38-1.09,2.57-1.9,.27-1.17-.02-2.81-.72-3.79-1.14-1.6-2.8-2.83-4.24-4.21-1.8-1.73-3.61-3.46-5.41-5.2-1.54-1.5-3.05-3.02-4.61-4.5-.18-.18-.56-.24-.83-.22-1.17,.09-2.24,.06-2.89-1.19-.13-.25-.68-.4-1.03-.4-.65,0-1.3,.22-1.95,.22-.86,0-1.71-.11-2.66-.18-.51-1.11-2.02-1.38-4.8-.89-.59-.32-1.23-.66-1.82-.59-1.11,.13-2.2,.49-3.26,.74-.23,.42-.47,.92-.77,1.38-1.33,2.02-1.98,4.33-2.42,6.64-.16,.86-.28,1.64-.71,2.4-.18,.32-.36,.72-.33,1.07,.11,1.07-.38,1.52-1.62,1.4Zm76.52,9.98c1.19-.14,2.32-.28,3.45-.38,.2-.02,.4,.21,.62,.31,.42,.19,.82,.42,1.26,.55,1.58,.48,3.31,.05,4.84,1.11,.93,.65,2.2,.82,3.33,1.17,.27,.08,.61,.1,.86,0,2.14-.82,4.55-.84,6.53-2.21,.63-.43,1.68-.28,2.28-.74,2.09-1.6,4.78-2.16,6.74-3.98,.78-.72,1.87-1.11,2.62-1.85,.44-.44,.72-1.29,.66-1.92-.1-.96-.56-1.88-.86-2.82-.37-1.15-.6-2.38-1.15-3.44-.53-1.03,.19-2.28-.97-3.27-.84-.72-1.05-2.14-1.63-3.2-.46-.83-1.04-2.22-1.6-2.24-1.41-.05-2.76-1.32-4.24-.31-.24,.17-.65,.12-.99,.12-1.47,.02-2.98-.23-4.25,.85-.22,.19-.67,.33-.93,.24-2.94-1.02-5.53,.58-8.26,1.09-.41,.08-.8,.5-1.12,.84-1.19,1.23-2.31,2.53-3.53,3.74-1.39,1.38-2.91,2.65-4.28,4.05-2.11,2.16-4.14,4.39-6.03,6.4,.25,.81,.64,1.47,.61,2.11-.04,1.04,.37,1.63,1.3,1.9,1.54,.44,3.1,.82,4.76,1.25,0-.04,0,.21,0,.62ZM29.91,100.32s-.04,.09-.06,.13c.48,.29,.97,.57,1.44,.87,.57,.37,1.11,.81,1.71,1.13,1.17,.61,2.33,1.26,3.57,1.66,.59,.19,1.57,.05,2-.35,1.54-1.41,2.88-3.04,4.37-4.51,2.2-2.19,4.47-4.32,6.69-6.5,.39-.39,.78-.88,.94-1.4,.58-1.93,.48-3.95,1.07-5.95,.6-2.04,.12-4.35,.77-6.54,.51-1.75,.39-3.69,.51-5.55,.02-.27-.24-.55-.35-.82-.35-.86-1.61-.95-1.81-1.37-.82-1.69-2.08-.93-3.07-.71-1.77,.39-3.5,1.03-5.2,1.69-2.16,.85-4.43,1.59-6.34,2.84-1.03,.67-1.91,.74-2.94,.79-.28,.01-.59,.01-.82,.14-2.09,1.19-3.6,3.02-4.9,4.94-1.08,1.59-1.73,3.46-2.66,5.16-.85,1.57-1.82,3.07-2.72,4.61-.15,.26-.2,.59-.27,.89-.65,2.56,1.75,3.38,2.89,4.88,.6,.79,1.77,1.13,2.6,1.78,.45,.35,.65,1,1.09,1.38,.43,.37,1.01,.56,1.52,.83Zm59.02-24.3c-1.05-.36-1.81-.63-2.56-.89-1.41-.49-2.84-.91-4.21-1.49-1.09-.46-2.08-1.18-3.16-1.69-1.77-.84-3.55-1.69-5.38-2.38-.57-.22-1.44-.18-1.96,.12-.83,.48-1.38,1.53-2.23,1.86-1.14,.44-.7,1-.51,1.67,.21,.72,.49,1.44,.56,2.18,.16,1.72,.21,3.45,.32,5.17,.01,.18,.06,.51,.14,.52,1.14,.21,.67,1.1,.71,1.72,.06,1.21,.02,2.42,.02,3.63,0,2.24,.72,4.19,2.38,5.73,.71,.66,1.5,1.25,2.18,1.95,.86,.88,1.6,1.89,2.48,2.76,.96,.95,2.04,1.78,3.04,2.69,1.32,1.2,2.61,2.45,3.94,3.65,.59,.53,1.13,.61,1.83-.07,.92-.92,1.94-1.93,3.11-2.35,1.27-.46,2.37-1,3.43-1.82,.95-.74,2.18-1.13,3.07-1.92,1.41-1.26,2.66-2.72,3.94-4.13,.26-.28,.56-.82,.46-1.07-.34-.81-.87-1.55-1.33-2.32-.99-1.64-1.98-3.28-2.96-4.92-.19-.32-.25-.71-.46-1.01-.59-.83-1.68-1.61-1.72-2.45-.06-1.16-.69-1.72-1.33-2.32-.99-.94-1.56-2.72-3.55-1.88-.12-.48-.21-.83-.24-.97Zm5.69-61.13c-.17,.04-.33,.07-.5,.11,.05,.82,.26,1.66,.1,2.44-.38,1.93-.76,3.89-1.47,5.72-.77,1.97-1.9,3.8-2.88,5.68-.47,.91-.19,1.46,.82,1.48,.51,.01,1.07-.01,1.54-.19,2.23-.86,4.39-1.15,6.4,.52,.16-.13,.29-.2,.38-.31,1.63-2.17,1.97-2.25,4.6-.97,.87,.43,1.76,0,1.64-.85-.09-.69-.18-1.53-.61-2-1.56-1.71-3.28-3.26-4.89-4.92-.93-.96-1.83-1.97-2.64-3.04-.89-1.17-1.66-2.43-2.48-3.65ZM44.06,7.96c-.93-.83-2.21-1.21-3.55-.76-1.49,.5-2.88,1.28-4.34,1.86-1.39,.55-2.84,.94-4.21,1.54-.78,.34-1.44,.96-2.27,1.54-.05,.73-.26,1.52,1.23,1.69,1.76,.2,3.2,1.43,4.39,2.64,1.26,1.29,2.05,2.97,3.97,3.62,1.44,.49,2.48,.1,2.9-1.37,.58-2.03-.08-4.19,.83-6.21,.39-.88,.19-2,.35-3,.07-.44,.38-.85,.71-1.55ZM4.6,56.01c.21,2.52-.31,4.98,.81,7.32,.49,1.02,.35,2.32,.57,3.48,.45,2.32,1.78,2.83,3.64,1.46,.49-.36,1-.71,1.54-.98,1.41-.71,2.84-1.36,4.26-2.06,.56-.28,1.11-.59,1.64-.94,.53-.35,1.49-.85,1.44-1.14-.12-.68-.59-1.49-1.17-1.84-.89-.54-2.19-.51-2.95-1.16-1.11-.94-3.06-.5-3.62-2.26-.03-.09-.41-.02-.6-.1-.44-.18-.84-.44-1.28-.61-1.38-.53-2.51-2.02-4.28-1.17Zm16.51,28.71s.09-.07,.14-.1c.34-.68,.68-1.35,1.02-2.03,.73-1.45,1.47-2.9,2.19-4.35,.53-1.06-.4-1.58-.99-1.55-1.88,.1-3.74,.51-5.62,.71-1.83,.2-3.65,.58-5.49-.13-.41-.16-1.18,.1-1.51,.43-.28,.28-.33,1-.19,1.43,.24,.71,.72,1.34,1.08,2.02,.33,.61,.56,1.29,.96,1.84,.94,1.26,2.22,2.35,2.88,3.74,.5,1.05,1.26,1.38,2.07,1.87,.93,.55,1.51-.02,1.93-.67,.38-.58,.5-1.32,.79-1.96,.2-.44,.49-.84,.75-1.26Zm32.24,10.51c-.58,.39-.99,.58-1.3,.89-1.05,1.05-2.03,2.16-3.09,3.2-1.81,1.77-3.68,3.49-5.48,5.27-.26,.26-.44,.77-.39,1.12,.05,.37,.38,.93,.66,.99,1.68,.31,3.4,.45,5.09,.74,1.6,.28,3.19,.67,4.78,1.04,1.01,.24,2,.54,3,.82,.13-.69,.25-1.38,.39-2.16-.32,.05-.53,.09-.58,.1-1.01-3.93-2.01-7.85-3.07-12.01ZM74.29,6.74c.11,.69,.17,1.24,.3,1.78,.34,1.46,.7,2.92,1.05,4.37,.46,1.89,.85,3.81,1.42,5.67,.12,.41,1.05,1.02,1.22,.91,1.3-.79,2.55-1.68,3.71-2.66,.74-.62,1.2-1.57,1.96-2.14,1.22-.91,2.58-1.61,3.88-2.41,.09-.06,.11-.24,.09-.2-.55-.52-1.03-1.02-1.55-1.47-1.43-1.23-2.96-2.14-4.92-2.39-1.43-.18-2.94-.5-4.18-1.18-1.19-.66-2.14-.49-2.97-.28ZM27.03,29.96c.05-1.03,.02-2.02-.88-3.09-1.09-1.29-1.81-2.94-2.47-4.53-.41-1-.9-2.42-.49-3.2,.68-1.29,0-1.89-.49-2.95-1.15,1.47-2.13,2.83-3.22,4.11-1.47,1.72-3.07,3.34-4.5,5.09-.51,.62-.69,1.5-1.03,2.27,.79,.62,1.71,1.05,3.06,1.1,1.69,.06,3.49,.1,5.14,1.42,1.11,.89,3.19,1.34,4.89-.22Zm42.73,65.48c-1.36,4.34-2.61,8.32-3.96,12.63,5.12,.76,9.42-.71,13.49-2.94-3.11-3.17-6.16-6.26-9.53-9.69Zm46.01-37.19c-.3-.48-.52-1.26-.9-1.36-.73-.18-1.66-.19-2.33,.12-1.81,.85-3.49,1.94-5.27,2.85-1.62,.83-3.5,1.22-4.53,2.93-.1,.16-.03,.62,.08,.66,.9,.39,1.98,.51,2.7,1.09,1.52,1.23,3.12,2.18,5,2.77,.68,.21,1.16,1.06,1.74,1.61,.25,.24,.57,.65,.79,.61,.33-.06,.79-.42,.85-.72,.29-1.43,.48-2.89,.66-4.34,.16-1.27,.21-2.56,.43-3.83,.14-.81,.5-1.58,.78-2.41Zm-5.05,19.2c-.89,0-1.42-.03-1.94,0-1.42,.08-2.85,.31-4.26,.25-1.61-.07-3.38-.02-4.76-.69-1.28-.62-1.86-.42-2.43,.22,.77,1.54,1.45,2.89,2.37,4.73,.37,.52,1.18,1.45,1.75,2.51,.53,.99,.76,2.14,1.23,3.18,.19,.42,.59,.89,1,1.02,.24,.07,.75-.43,1.01-.77,.87-1.15,1.7-2.34,2.53-3.52,.9-1.29,1.87-2.53,2.62-3.9,.46-.83,.56-1.84,.89-3.03Z"/><path class="cls-1" d="M59.51,63.41c.13-1.18,.31-2.23-.93-2.87-.91-.48-1.81-1.05-2.59-1.72-1.04-.9-2.28-1.78-2.84-2.95-.6-1.25-.61-2.85,1.03-3.75,.07-.04,.16-.14,.17-.21,.12-2.41,2.25-2.7,3.81-3.53,1.1-.58,2.23-.55,2.99,.47,1.09-.37,2.09-.75,3.12-1.03,.27-.08,.77,.02,.92,.23,.61,.85,1.13,1.77,1.69,2.65,.27,.41,.75,.76,.84,1.19,.29,1.41-1.37,3.44-2.72,3.05-1.05-.3-1.86-1.44-2.95-2.36-.11,.04-.53,.18-.97,.33,.12,1.71,1.31,2.15,2.64,2.46,.39,.09,.96,.23,1.07,.5,.59,1.45,1.84,2.08,3.09,2.76,.34,.19,.75,.7,.71,1.01-.11,.82-.4,1.62-.71,2.4-.12,.3-.49,.49-.69,.77-.35,.49-.56,1.15-1.01,1.5-1.5,1.19-3.1,2.1-5.19,1.85-.8-.1-1.66,.32-2.49,.49-.14,.03-.32,.08-.43,.02-1.19-.69-2.36-1.4-3.54-2.1-.66-.38-1.32-.76-2-1.1-1.03-.52-1.16-1.26-.52-2.16,.37-.52,.74-1.13,1.27-1.43,.31-.18,1.08,0,1.37,.3,.91,.91,1.58,2.09,2.56,2.89,.5,.41,1.47,.23,2.3,.32Z"/></g><g><path class="cls-1" d="M444.82,15.23c2.8-3.05,7.72-3.88,11.73-1.93,1,.48,2.23,.86,3.3,.76,9.09-.86,18.17-1.85,27-2.77,3.24,6.22,1.78,11.75,2.01,17.07,.23,5.39,2.14,6.52,6.93,4.39,4.65-2.07,9.59-3.47,14.36-5.29,4.75-1.81,9.5-3.65,14.14-5.72,1.07-.48,1.73-1.89,2.31-2.57,6.65,.42,10.4-5.74,16.12-7.16,1.09,7.53-.54,9.33-7.06,11.18-4.37,1.24-8.27,4.02-12.52,5.76-4.17,1.71-8.53,2.98-12.65,4.4,.37,2.74,.64,4.73,.76,5.62,2.7,3.51,5.17,6.11,6.9,9.13,1.49,2.59,1.41,6.35,3.32,8.39,4.59,4.93,6.05,11.33,9.28,16.84,2.57,4.38,5.8,8.36,8.62,12.6,.43,.64,.02,1.8,.34,2.57,.56,1.36,1.38,2.61,2.61,3.75,1.64,3.28,2.52,7.42,5.08,9.63,4.16,3.59,1.25,5.06-1.76,8.16-4.61-7.07-9.03-13.85-13.45-20.64,.1-.09,.21-.18,.31-.28-1.76-2.95-3.61-5.86-5.27-8.87-2.42-4.38-3.92-9.59-7.27-13.03-3.11-3.21-3.09-7.26-5.28-10.51-1.54-2.29-2.99-4.64-4.43-7-1.78-2.91-3.5-5.85-5.26-8.76-1.62-2.68-3.91-2.86-6.66-1.94-6.21,2.08-8.6,5.14-8.5,11.59,.25,16.5,.62,33.01,.86,49.51,.1,7.13-1.72,8.75-9,8.37-5.45-.28-10.9-.7-16.35-.85-5.21-.15-10.43-.03-16.74-.03-.21-3.27-.52-6.52-.61-9.77-.37-12.56-.71-25.12-1-37.68-.31-13.42-.51-26.84-.86-40.26-.04-1.38-.74-2.75-1.29-4.67Z"/><path class="cls-1" d="M357.94,89.76c8.5,6.61,15.11,15.85,27.28,15.23,.91-.05,1.84,.69,2.79,.96,1.1,.31,2.51,1.06,3.29,.65,3.69-1.89,7.22-4.12,10.3-5.93-1.22-2.99-1.91-5-2.85-6.88-.56-1.13-1.39-2.19-2.31-3.05-6.58-6.13-13.11-12.31-19.86-18.23-3.51-3.08-7.72-5.37-11.11-8.55-4.12-3.87-9.88-7.41-10.52-13.1-.89-8.03-.92-16.13,4.39-23.8,3.92-5.66,10.27-6.77,14.32-10.9,4.02-4.1,9.81-1.86,13.55-6.07,1.33-1.5,5.75-.35,8.76-.23,2.95,.11,5.89,.45,9.35,.73,.83,3.76,4.07,4.13,7.92,3.65,.83-.1,1.78,.83,2.68,1.25,.92,.43,2.12,1.4,2.72,1.12,1.94-.9,2.93-.72,3.58,1.46,.18,.61,1.37,1.04,2.18,1.33,1.67,.6,3.39,1.05,5.19,1.59-2.71,5.89-3.82,5.96-8.58,2.59-1.9-1.35-4.42-1.93-6.74-2.57-3.91-1.09-7.88-1.96-12.34-3.04-.15-.61-.42-1.78-.71-2.98-11.45,4.33-12.45,9.43-4.71,18.33,2.83,3.25,6.74,5.54,9.88,8.55,4.18,4,8.05,8.32,12.17,12.38,1.16,1.15,2.87,1.73,4.12,2.81,3.04,2.64,6.9,4.94,8.69,8.3,1.99,3.74,6.13,6.71,5.13,12.04-.55,2.93,.7,6.18,.26,9.16-.73,4.93-3.22,9.39-6.6,12.89-5.33,5.51-12.58,7.08-19.69,9.51-6.65,2.28-13.04,2.54-19.64,3-4.2,.29-8.12,.11-12.13-2.45-3.16-2.02-7.62-2.02-11.5-2.91-.69-.16-1.56-.07-2.05-.47-2.32-1.92-4.6-3.91-6.77-5.99-3.02-2.89-3.16-6.45-.44-10.4Z"/><path class="cls-1" d="M325.67,13.84c1.63,1.18,2.88,2.41,4.37,3.1,3.39,1.56,6.61,3.29,8.65,6.52,.23,.37-.73,1.89-1.47,2.35-.9,.56-2.15,.57-3.66,.91-.26-1.19-.5-2.24-.78-3.51-5.74,0-10.9-1.77-15.8-5.69-.15,.09-.94,.59-1.86,1.16-.81-1.94-1.55-3.7-2.33-5.56-3.03,2.05-6.14,3.63-8.57,5.94-2.64,2.51,.35,13.39,3.31,15.78,4.6,3.73,8.79,7.97,13.03,12.12,2.94,2.88,5.17,6.93,8.61,8.76,4.77,2.53,8.18,6.4,11.92,9.84,6.38,5.85,8.49,16.69,4.89,25.77-4.61,11.63-14.17,14.44-24.11,18.24-7.45,2.85-14.91,2.51-22.45,2.41-2.74-.04-5.47-1.08-8.18-1.78-2.08-.54-4.12-1.26-6.23-1.31-.88-.72-1.78-2.07-2.64-2.04-4.78,.13-7.39-2.34-9.09-6.49-.34-.84-1.78-1.16-2.54-1.9-3.65-3.59-3.67-5.22-.28-9.42,5.51,3.27,7.35,10.63,14.14,12.54,6.63,1.87,13.09,4.77,19.84,5.65,2.68,.35,5.97-3.44,8.84-5.53,.4-.29,.37-1.96-.07-2.47-4.88-5.76-8.98-12.09-15.38-16.66-5-3.57-8.74-8.86-13.3-13.12-2.61-2.44-6.4-3.83-8.45-6.6-2.57-3.45-5.95-6.05-8.33-9.89-3.28-5.28-1.1-10.46-1.8-15.5-.48-3.43,3.47-7.63,5.8-11.25,1.57-2.45,3.42-5.83,5.76-6.46,5.7-1.51,9.81-6.71,16.06-6.56,.27,0,.65-.06,.81-.25,4.92-5.56,11.37-3.29,17.42-3.87,4.37-.42,6.13,2.77,9.21,3.93,1.59,.6,3.39,.63,4.61,.84Z"/><path class="cls-1" d="M138.39,12.7c1.53-.82,1.19-5.06,4.96-1.84,1.24,1.06,4.54-.63,6.85-.42,4.14,.38,8.22,1.55,12.36,1.77,2.31,.12,4.65-1.29,7.03-1.55,4.52-.49,9.22-1.45,13.58-.69,3.26,.57,6.79,2.96,8.99,5.57,5.25,6.22,9.91,12.95,14.57,19.64,3.41,4.9,6.4,10.1,9.67,15.1,.77,1.17,2.02,2,2.91,3.11,.67,.84,1.44,1.81,1.59,2.81,.83,5.47,3.7,7.86,8.92,7.55,1.06-1.78,2.18-3.25,2.87-4.9,3.9-9.27,11.54-16.49,14.93-25.84,2.56-7.05,6.42-13.2,9.84-19.67,.58-1.09,1.56-1.97,2.34-2.93,1.16,1.07,2.04,1.88,2.77,2.55-1.03,3.21-1.91,6.97-3.44,10.44-1.61,3.63-3.84,6.99-5.82,10.45-4.66,8.2-9.44,16.34-13.97,24.61-2.82,5.16-5.06,10.64-7.98,15.74-2.68,4.68-6.16,8.91-8.85,13.59-2.34,4.06-3.91,8.55-6.12,12.69-1.66,3.1-3.44,6.31-5.9,8.73-1.12,1.1-4.08,.82-6.05,.4-1.16-.24-2.14-1.89-2.95-3.07-.81-1.2-1.28-2.62-1.97-3.91-.2-.38-.91-.67-.88-.95,.45-4.87-5.11-5.87-6.29-9.84-.54-1.82-2.64-3.18-4.06-4.72-.26-.29-.96-.42-.97-.66-.37-6.34-6.35-8.78-9.2-13.37-.57-.91-.32-2.31-.86-3.26-.66-1.18-1.69-2.18-2.65-3.17-.99-1.03-3.09-2.18-2.95-2.93,.77-3.94-1.67-5.49-4.28-7.33-1.4-.99-2.48-2.56-3.44-4.03-3.05-4.67-5.24-10.17-9.15-13.92-4-3.85-2.71-11.05-9.04-12.93-.19-.06-.39-.47-.4-.72-.17-4.2-5.09-6.34-4.71-10.83,.03-.33-1.33-.77-2.25-1.26Z"/><path class="cls-1" d="M559.23,107.5c0-9,.1-17.51-.03-26.01-.13-8.44-.57-16.88-.73-25.33-.04-2.15,.76-4.31,.72-6.46-.18-8.82-.66-17.63-.81-26.45-.15-8.77,.99-9.85,9.91-10.92,3.88-.46,7.78-1.44,10.77,2.32,.33,.41,1.4,.38,2.11,.31,5.78-.54,11.56-1.08,17.33-1.75,3.75-.44,5.22,1.67,5.2,4.85-.12,16.61-.52,33.21-.57,49.82-.03,10.18,.48,20.36,.59,30.54,.11,9.47-.86,10.33-10.27,10.08-6.25-.16-12.16-2.7-18.87-.38-4.37,1.51-9.87-.28-15.35-.62Z"/><path class="cls-1" d="M619.8,108.47c0-8.07,.09-15.91-.04-23.76-.06-4.14-.65-8.27-.7-12.41-.04-2.75,.6-5.49,.68-8.25,.36-11.77,.7-23.54,.86-35.31,.05-3.34-.58-6.68-.82-10.03-.26-3.72,1.95-4.66,4.9-3.6,6.35,2.28,12.51,.04,18.75-.35,3.07-.19,6.13-.47,9.2-.6,2.09-.09,4.19,.11,6.27-.04,3.9-.29,5.35,1.21,5.36,6.06,.03,17.78-.08,35.57,.05,53.35,.07,9.17,.47,18.35,.88,27.52,.31,6.94-2.17,8.91-8.64,6.72-.97-.33-2.32-.51-3.18-.1-7.81,3.73-15.34,1.6-23.1-.4-2.79-.72-6.11,.64-10.47,1.22Z"/></g></svg>